<?xml version="1.0" encoding="utf-8"?>
<!DOCTYPE svg PUBLIC "-//W3C//DTD SVG 1.1//EN" "http://www.w3.org/Graphics/SVG/1.1/DTD/svg11.dtd">
<svg version="1.1" id="图形" xmlns="http://www.w3.org/2000/svg" xmlns:xlink="http://www.w3.org/1999/xlink" x="0px" y="0px" width="1024px" height="1024px" viewBox="0 0 1024 1024" enable-background="new 0 0 1024 1024" xml:space="preserve">
  <path fill="#272636" d="M729.472 328.416c38.976 46.272 62.464 105.984 62.464 171.008 0 146.624-119.296 265.92-265.92 265.92L193.6 765.344l0-930.752 398.912 0c146.624 0 265.92 119.296 265.92 265.92C858.432 197.088 806.72 281.824 729.472 328.416L729.472 328.416zM393.024 632.416l105.408 0c58.112 0 105.408-59.648 105.408-132.992 0-73.344-47.296-132.992-105.408-132.992L393.024 366.432 393.024 632.416 393.024 632.416zM558.208-32.416 393.024-32.416 393.024 233.504l165.184 0c60.736 0 110.144-59.648 110.144-132.992S618.944-32.416 558.208-32.416L558.208-32.416zM558.208-32.416" transform="translate(0, 812) scale(1, -1)"/>
</svg>
