<?xml version="1.0" encoding="utf-8"?>
<!DOCTYPE svg PUBLIC "-//W3C//DTD SVG 1.1//EN" "http://www.w3.org/Graphics/SVG/1.1/DTD/svg11.dtd">
<svg version="1.1" id="图形" xmlns="http://www.w3.org/2000/svg" xmlns:xlink="http://www.w3.org/1999/xlink" x="0px" y="0px" width="1024px" height="1024px" viewBox="0 0 1024 1024" enable-background="new 0 0 1024 1024" xml:space="preserve">
  <path fill="#272636" d="M342.677 216.998M920.887 284.954l-206.45-206.45c-8.142-8.146-21.347-8.146-29.493 0l-29.493 29.493c-8.146 8.142-8.146 21.347 0 29.493l162.213 162.213L655.452 461.911c-8.146 8.146-8.146 21.351 0 29.497l29.493 29.493c8.146 8.146 21.351 8.146 29.493 0l206.45-206.45C929.038 306.305 929.038 293.1 920.887 284.954zM434.759-45.498l-37.643 10.54c-10.394 2.911-16.788 13.193-14.281 22.969l167.635 644.738c2.682 10.01 13.877 15.712 25.001 12.73l40.287-10.794c11.128-2.982 17.973-13.514 15.287-23.528L458.12-33.068C455.609-42.845 445.153-48.409 434.759-45.498zM368.545 107.997l-29.493-29.493c-8.142-8.146-21.347-8.146-29.493 0l-206.45 206.45c-8.146 8.146-8.146 21.351 0 29.497l206.45 206.45c8.146 8.146 21.351 8.146 29.493 0l29.493-29.493c8.146-8.146 8.146-21.351 0-29.497L206.332 299.703 368.545 137.49C376.691 129.344 376.691 116.139 368.545 107.997z" transform="translate(0, 812) scale(1, -1)"/>
</svg>
