<?xml version="1.0" encoding="utf-8"?>
<!DOCTYPE svg PUBLIC "-//W3C//DTD SVG 1.1//EN" "http://www.w3.org/Graphics/SVG/1.1/DTD/svg11.dtd">
<svg version="1.1" id="图形" xmlns="http://www.w3.org/2000/svg" xmlns:xlink="http://www.w3.org/1999/xlink" x="0px" y="0px" width="1024px" height="1024px" viewBox="0 0 1024 1024" enable-background="new 0 0 1024 1024" xml:space="preserve">
  <path fill="#272636" d="M937.814 770.274H86.28736c-44.7304 0-81.3199-33.2452-81.3199-78.0483v-782.5664c0-44.802 36.5885-81.4653 81.3199-81.4653h858.312704c44.7304 0 77.951 36.6633 77.951 81.4653V692.225792C1022.55 737.0289 982.5454 770.274 937.814 770.274zM332.7898 654.4504c68.8886 0 124.7416-55.8049 124.7416-124.6454 0-68.8404-55.852-124.6454-124.7416-124.6454s-124.7416 55.8049-124.7416 124.6454C208.0481 598.6465 263.9002 654.4504 332.7898 654.4504zM119.508-73.0156c-9.3532 0-18.7791 3.2225-26.4356 9.815-17.0588 14.635-19.0454 40.3425-4.4104 57.4269l186.9906 281.855c13.8854 16.2345 37.9218 18.9491 55.1014 6.2269l164.9889-122.5349 295.6196 335.8177c14.0052 17.5677 88.2739 100.3162 131.7437 6.4686 0.0481 0.1454 0.0973-124.0873 0.1454-250.9363 0.0481-132.3039 0.0727-324.0182 0.0727-324.0182C922.4284-72.6746 119.895-73.0156 119.508-73.0156z" transform="translate(0, 812) scale(1, -1)"/>
</svg>
