<?xml version="1.0" encoding="utf-8"?>
<!DOCTYPE svg PUBLIC "-//W3C//DTD SVG 1.1//EN" "http://www.w3.org/Graphics/SVG/1.1/DTD/svg11.dtd">
<svg version="1.1" id="图形" xmlns="http://www.w3.org/2000/svg" xmlns:xlink="http://www.w3.org/1999/xlink" x="0px" y="0px" width="1024px" height="1024px" viewBox="0 0 1024 1024" enable-background="new 0 0 1024 1024" xml:space="preserve">
  <path fill="#272636" d="M702.273726 812q26.597403 0 45.010989-18.925075t18.413586-45.522478-18.413586-45.010989-45.010989-18.413586l-64.447552 0-58.30969-703.808192 58.30969 0q26.597403 0 45.522478-18.925075t18.925075-45.522478-18.925075-45.522478-45.522478-18.925075l-320.191808 0q-26.597403 0-45.010989 18.925075t-18.413586 45.522478 18.413586 45.522478 45.010989 18.925075l69.562438 0 58.30969 703.808192-63.424575 0q-26.597403 0-45.522478 18.413586t-18.925075 45.010989 18.925075 45.522478 45.522478 18.925075l320.191808 0z" transform="translate(0, 812) scale(1, -1)"/>
</svg>
