<?xml version="1.0" encoding="utf-8"?>
<!DOCTYPE svg PUBLIC "-//W3C//DTD SVG 1.1//EN" "http://www.w3.org/Graphics/SVG/1.1/DTD/svg11.dtd">
<svg version="1.1" id="图形" xmlns="http://www.w3.org/2000/svg" xmlns:xlink="http://www.w3.org/1999/xlink" x="0px" y="0px" width="1024px" height="1024px" viewBox="0 0 1024 1024" enable-background="new 0 0 1024 1024" xml:space="preserve">
  <path fill="#272636" d="M338.909867-66.1824c-26.658133-26.658133-69.870933-26.658133-96.529067 0l-96.5632 96.5632c-26.658133 26.658133-26.658133 69.870933 0 96.529067l124.8256 124.8256 117.248 117.282133c-52.3264 30.8224-120.593067 24.200533-165.546667-20.718933l-173.090133-173.090133c-53.316267-53.316267-53.316267-139.741867 0-193.092267l144.827733-144.827733c53.316267-53.316267 139.776-53.316267 193.092267 0l173.090133 173.090133c44.919467 44.919467 51.541333 113.186133 20.718933 165.546667L338.909867-66.1824zM974.711467 617.917867l-144.827733 144.7936c-53.316267 53.316267-139.776 53.316267-193.092267 0l-173.090133-173.090133c-44.919467-44.919467-51.541333-113.186133-20.718933-165.546667l242.0736 242.0736c26.658133 26.658133 69.870933 26.658133 96.529067 0l96.5632-96.5632c26.658133-26.658133 26.658133-69.870933 0-96.529067l-242.0736-242.0736c52.3264-30.788267 120.593067-24.200533 165.546667 20.718933l173.090133 173.090133C1028.027733 478.141867 1028.027733 564.6016 974.711467 617.917867zM326.826667 138.993067l24.132267-24.132267c20.002133-20.002133 52.394667-20.002133 72.3968 0l273.783467 273.783467c20.002133 20.002133 20.002133 52.4288 0 72.3968l-24.132267 24.132267c-20.002133 20.002133-52.394667 20.002133-72.3968 0l-273.783467-273.783467C306.824533 191.387733 306.824533 158.961067 326.826667 138.993067z" transform="translate(0, 812) scale(1, -1)"/>
</svg>
