<?xml version="1.0" encoding="utf-8"?>
<!DOCTYPE svg PUBLIC "-//W3C//DTD SVG 1.1//EN" "http://www.w3.org/Graphics/SVG/1.1/DTD/svg11.dtd">
<svg version="1.1" id="图形" xmlns="http://www.w3.org/2000/svg" xmlns:xlink="http://www.w3.org/1999/xlink" x="0px" y="0px" width="1025px" height="1024px" viewBox="0 0 1025 1024" enable-background="new 0 0 1025 1024" xml:space="preserve">
  <path fill="#272636" d="M374.558721 551.520477l568.824193 0c44.561915 0 80.630389 36.057217 80.630389 80.608899s-36.068474 80.608899-80.630389 80.608899L374.558721 712.738275c-44.551682 0-80.671321-36.057217-80.671321-80.608899S330.007039 551.520477 374.558721 551.520477zM943.382914 385.60775 374.558721 385.60775c-44.551682 0-80.671321-36.182061-80.671321-80.703043 0-44.551682 36.119639-80.640622 80.671321-80.640622l568.824193 0c44.561915 0 80.630389 36.08894 80.630389 80.640622C1024.013303 349.414433 987.944829 385.60775 943.382914 385.60775zM943.382914 58.393313 374.558721 58.393313c-44.551682 0-80.671321-36.193317-80.671321-80.682577 0-44.509726 36.119639-80.630389 80.671321-80.630389l568.824193 0c44.561915 0 80.630389 36.119639 80.630389 80.630389C1024.013303 22.199996 987.944829 58.393313 943.382914 58.393313zM135.632073 712.729066l-52.577472 0c-44.800345 0-81.009012-36.208667-81.009012-80.94659 0-44.727691 36.208667-80.94659 81.009012-80.94659l52.577472 0c44.769646 0 80.967056 36.208667 80.967056 80.94659S180.391487 712.729066 135.632073 712.729066zM135.632073 384.240613l-52.577472 0c-44.800345 0-81.009012-36.33351-81.009012-81.039711 0-44.737924 36.208667-80.977289 81.009012-80.977289l52.577472 0c44.769646 0 80.967056 36.239366 80.967056 80.977289C216.59913 347.89687 180.391487 384.240613 135.632073 384.240613zM135.632073 55.659039l-52.577472 0c-44.800345 0-81.009012-36.343743-81.009012-81.019245 0-44.695968 36.208667-80.967056 81.009012-80.967056l52.577472 0c44.769646 0 80.967056 36.271088 80.967056 80.967056C216.59913 19.314273 180.391487 55.659039 135.632073 55.659039z" transform="translate(0, 812) scale(1, -1)"/>
</svg>
