<?xml version="1.0" encoding="utf-8"?>
<!DOCTYPE svg PUBLIC "-//W3C//DTD SVG 1.1//EN" "http://www.w3.org/Graphics/SVG/1.1/DTD/svg11.dtd">
<svg version="1.1" id="图形" xmlns="http://www.w3.org/2000/svg" xmlns:xlink="http://www.w3.org/1999/xlink" x="0px" y="0px" width="1024px" height="1024px" viewBox="0 0 1024 1024" enable-background="new 0 0 1024 1024" xml:space="preserve">
  <path fill="#272636" d="M108.319008 487.568956l21.393239 0L129.712247 624.355319l-16.207124 0c-4.76042-14.697747-17.939581-26.579355-39.545668-35.655058l0-20.744463c14.687514 6.04774 26.143427 12.094456 34.358529 18.151405C108.319008 546.339478 108.319008 513.500559 108.319008 487.568956zM275.370675 645.348446l356.847338 0 0-165.958776-356.847338 0 0 165.958776ZM275.370675 396.53359l680.499645 0 0-165.958776-680.499645 0 0 165.958776ZM275.370675 121.304132l572.615543 0 0-165.958776-572.615543 0 0 165.958776ZM136.194892 42.862595c14.262842 5.610788 21.393239 14.909571 21.393239 27.874861-0.870834 24.635073-15.133675 37.164435-42.786479 37.600363-23.338544-0.435928-38.035268-12.317537-44.083008-35.655058l22.042016-5.186116c2.593058 13.390985 10.149151 20.522406 22.689768 21.392216 12.530384-0.434905 19.013029-6.269797 19.447934-17.502629-0.870834-13.836123-9.511631-20.744463-25.930579-20.744463l-11.021008 0 0-18.800181L114.1539 31.841587c15.984043-0.434905 24.635073-7.131421 25.931602-20.09671 0.425695-16.430204-8.215102-24.421202-25.931602-23.985274-14.261818 0.424672-22.264073 8.204869-23.986297 23.337521l-22.042016-5.185093c4.751211-23.77345 20.522406-35.868929 47.324842-36.303834 29.821189 1.296529 45.592384 14.909571 47.324842 40.841174C162.339342 25.135862 153.475464 35.944022 136.194892 42.862595zM158.88466 265.579049c-15.994276 0-37.387515 0-64.179718 0 6.482645 9.076726 17.280572 19.225877 32.414247 30.468942 24.199145 15.559371 35.219129 31.978319 33.062 49.269124-1.732457 24.199145-15.994276 36.951587-42.786479 38.248116-23.337521 0-39.119973-11.021008-47.323818-33.062l20.744463-9.075703c3.889587 14.261818 11.881608 21.606087 23.986297 22.042016 15.558347 0 23.337521-6.482645 23.337521-19.447934 0.860601-10.372232-8.215102-22.264073-27.227108-35.655058-19.023262-13.836123-33.497928-29.821189-43.434232-47.972595l0-12.966313 91.406826 0L158.88466 265.579049z" transform="translate(0, 812) scale(1, -1)"/>
</svg>
